<svg width="200" height="50" viewBox="0 0 200 50" fill="currentColor" xmlns="http://www.w3.org/2000/svg">
  <path d="M50 25C50 38.8081 38.8054 50 25 50C18.7307 49.9998 12.6902 47.6441 8.07605 43.3999C3.46185 39.1556 0.610737 33.3326 0.0878411 27.0851C0.029733 26.3986 0 25.7027 0 25.0014C0 24.2446 0.0337851 23.4932 0.102704 22.7554C0.663093 16.5391 3.52851 10.7572 8.13567 6.54638C12.7428 2.33557 18.7585 0.000433093 25 0C38.8054 0 50 11.1932 50 25Z" fill="#AE244D"/>
  <path d="M25.5946 11.0039C18.1703 11.0039 12.6216 15.8688 11.6013 22.7958L0.102704 22.7607C0.0337851 23.4985 0 24.2472 0 25.0066C0 25.708 0.029733 26.4039 0.0878411 27.0904H11.55C12.4095 34.535 18.1203 39.7931 25.7986 39.7931C30.5824 39.7931 35.2121 37.3864 37.4784 33.8039L30.7919 33.8431C29.2037 34.791 27.3901 35.295 25.5405 35.3026C20.8743 35.3026 17.223 32.0256 16.4446 27.1283L39.0676 27.1783H39.5067L39.5473 26.7391C39.6 26.1539 39.6 25.6228 39.6 25.1647C39.6027 16.9945 33.727 11.0039 25.5946 11.0039ZM16.5716 22.7972C17.4432 18.4728 20.877 15.5404 25.4419 15.5404C30.1095 15.5404 33.5919 18.4823 34.4649 22.8458L16.5716 22.7972Z" fill="white"/>
  <path d="M27.2942 15.3321C27.1011 15.6792 26.8094 15.9612 26.456 16.1425C26.1026 16.3238 25.7034 16.3962 25.3089 16.3506C24.9143 16.305 24.5421 16.1435 24.2394 15.8863C23.9367 15.6292 23.717 15.2881 23.6082 14.9062C23.4993 14.5242 23.5061 14.1186 23.6278 13.7405C23.7495 13.3624 23.9806 13.0289 24.2918 12.7822C24.6031 12.5354 24.9805 12.3865 25.3763 12.3543C25.7722 12.322 26.1687 12.4079 26.5158 12.601C26.9812 12.86 27.3246 13.2932 27.4706 13.8054C27.6165 14.3175 27.5531 14.8667 27.2942 15.3321Z" fill="#AD244D"/>
  <path d="M197.025 32.1651V12.0015H199.566V32.1651H197.025ZM190.997 32.1651V12.0015H193.538V32.1651H190.997ZM177.702 24.1883H185.74C185.737 23.8173 185.7 23.4474 185.629 23.0833C185.556 22.6805 185.426 22.2901 185.243 21.9238C185.063 21.5401 184.812 21.1934 184.505 20.9015C184.185 20.5756 183.799 20.3235 183.372 20.1629C182.87 19.9683 182.335 19.8744 181.797 19.8867C181.203 19.8755 180.616 20.0083 180.085 20.2737C179.605 20.5142 179.181 20.8529 178.841 21.2679C178.491 21.675 178.22 22.1433 178.041 22.6491C177.86 23.1412 177.746 23.6555 177.702 24.1779V24.1883ZM182.951 32.1651C181.403 32.1651 180.03 31.88 178.834 31.3098C177.687 30.7641 176.712 29.9132 176.017 28.8503C175.353 27.7818 175.022 26.539 175.023 25.1219C175 23.8188 175.294 22.5298 175.879 21.3654C176.413 20.2787 177.235 19.359 178.255 18.7064C179.266 18.0624 180.444 17.7404 181.79 17.7404C183.245 17.7404 184.452 18.053 185.409 18.6784C186.372 19.2909 187.131 20.1758 187.591 21.2206C188.082 22.3332 188.327 23.5392 188.308 24.7555C188.308 24.9579 188.3 25.1706 188.28 25.3907C188.283 25.5856 188.265 25.7803 188.226 25.9713H177.73C177.797 26.7767 178.094 27.5459 178.586 28.187C179.072 28.7817 179.698 29.2466 180.408 29.5401C181.202 29.8419 182.045 29.9922 182.895 29.9833H186.568V32.1651H182.951ZM163.895 20.2604V18.0786H173.701V20.2604H163.895ZM170.331 32.1651C169.078 32.1651 168.094 31.8062 167.377 31.0882C166.676 30.3703 166.326 29.3944 166.326 28.1604V14.5437H168.869V27.995C168.869 28.6026 169.034 29.0906 169.365 29.4589C169.715 29.8085 170.194 29.9833 170.802 29.9833H173.656V32.1651H170.331ZM151.718 32.1651V29.9833H158.457C158.853 29.9951 159.245 29.8997 159.59 29.7071C159.904 29.5217 160.162 29.2547 160.336 28.9345C160.5 28.6282 160.585 28.2861 160.585 27.9389C160.588 27.6213 160.512 27.308 160.363 27.0274C160.213 26.7295 159.971 26.4877 159.673 26.3376C159.348 26.1452 158.974 26.0494 158.596 26.0614H155.751C154.937 26.0776 154.129 25.9268 153.376 25.6182C152.734 25.3233 152.189 24.8539 151.801 24.2636C151.432 23.6727 151.248 22.9548 151.249 22.1099C151.243 21.4122 151.424 20.7257 151.773 20.1216C152.145 19.4938 152.674 18.9745 153.309 18.6157C153.945 18.2569 154.663 18.0712 155.392 18.0771H161.883V20.259H155.64C155.394 20.2481 155.148 20.2889 154.918 20.3787C154.688 20.4685 154.479 20.6053 154.305 20.7804C154.144 20.9447 154.018 21.1392 153.932 21.3527C153.847 21.5661 153.804 21.7943 153.807 22.0242C153.806 22.2497 153.849 22.4731 153.935 22.6818C154.02 22.8904 154.146 23.0801 154.305 23.2399C154.654 23.5708 155.142 23.7363 155.769 23.7363H158.475C159.488 23.7363 160.335 23.9022 161.016 24.2341C161.676 24.512 162.229 24.9966 162.591 25.6152C162.958 26.2219 163.142 26.9674 163.143 27.8517C163.148 28.5985 162.957 29.3335 162.588 29.9832C162.22 30.6328 161.687 31.1743 161.044 31.5536C160.363 31.9686 159.577 32.1793 158.779 32.1607L151.718 32.1651ZM138.617 24.1883H146.655C146.652 23.8173 146.615 23.4474 146.544 23.0833C146.471 22.6803 146.341 22.2898 146.157 21.9238C145.976 21.54 145.726 21.1933 145.418 20.9015C145.099 20.5756 144.712 20.3235 144.285 20.1629C143.784 19.9684 143.248 19.8746 142.711 19.8867C142.117 19.8755 141.53 20.0083 140.998 20.2737C140.519 20.5142 140.095 20.8529 139.755 21.2679C139.404 21.6747 139.133 22.143 138.954 22.6491C138.777 23.1417 138.668 23.656 138.629 24.1779L138.617 24.1883ZM143.864 32.1651C142.318 32.1651 140.946 31.88 139.749 31.3098C138.602 30.7641 137.627 29.9132 136.932 28.8503C136.269 27.7818 135.938 26.539 135.938 25.1219C135.915 23.8188 136.209 22.5298 136.794 21.3654C137.328 20.2787 138.15 19.359 139.17 18.7064C140.182 18.0624 141.36 17.7404 142.705 17.7404C144.16 17.7404 145.367 18.053 146.324 18.6784C147.287 19.2909 148.046 20.1758 148.506 21.2206C148.997 22.3332 149.242 23.5392 149.223 24.7555C149.223 24.9579 149.215 25.1706 149.195 25.3907C149.198 25.5856 149.18 25.7803 149.141 25.9713H138.644C138.711 26.7767 139.009 27.5457 139.501 28.187C139.987 28.7817 140.613 29.2466 141.323 29.5401C142.117 29.8419 142.96 29.9922 143.81 29.9833H147.483V32.1651H143.864ZM126.748 30.3142C127.575 30.325 128.388 30.1051 129.097 29.679C129.821 29.2493 130.414 28.6283 130.809 27.8842C131.233 27.1102 131.445 26.1894 131.444 25.1219C131.466 24.1805 131.247 23.249 130.809 22.4156C130.43 21.6703 129.857 21.0406 129.151 20.5928C128.44 20.1467 127.615 19.9163 126.776 19.9295C125.936 19.9136 125.109 20.1361 124.39 20.5711C123.671 21.0062 123.091 21.636 122.715 22.3876C122.311 23.1616 122.108 24.0824 122.108 25.1499C122.085 26.0972 122.293 27.0358 122.715 27.8842C123.106 28.623 123.688 29.243 124.401 29.679C125.114 30.1026 125.93 30.3223 126.76 30.3142H126.748ZM126.748 32.4975C125.469 32.517 124.205 32.212 123.076 31.6112C121.99 31.0233 121.09 30.1432 120.479 29.0704C119.853 27.9477 119.539 26.6035 119.539 25.0377V12H122.08V20.5913H122.136C122.446 20.0235 122.859 19.5178 123.352 19.0994C124.425 18.2163 125.774 17.7375 127.163 17.7463C128.39 17.7264 129.601 18.0322 130.671 18.6326C131.703 19.2222 132.546 20.0932 133.101 21.1438C133.709 22.2123 134.013 23.4827 134.013 24.9549C134.028 26.0301 133.841 27.0986 133.46 28.1043C133.132 28.9905 132.624 29.7993 131.968 30.4796C131.326 31.1452 130.549 31.6659 129.689 32.007C128.75 32.3452 127.758 32.5113 126.76 32.4975H126.748ZM110.678 32.3616L105.432 18.5883H108.181L111.969 29.6672H112.025L115.448 18.5883H118L111.183 38H108.558L110.678 32.3616ZM93.074 32.1651V29.9833H99.8129C100.209 29.9951 100.6 29.8997 100.946 29.7071C101.257 29.5206 101.512 29.2537 101.685 28.9345C101.848 28.6282 101.934 28.2861 101.933 27.9389C101.936 27.6213 101.86 27.308 101.711 27.0274C101.561 26.7295 101.319 26.4877 101.021 26.3376C100.696 26.1452 100.322 26.0494 99.9444 26.0614H97.1185C96.3043 26.0775 95.4954 25.9267 94.7417 25.6182C94.1006 25.3232 93.5555 24.8538 93.1685 24.2636C92.7992 23.6727 92.6151 22.9548 92.6161 22.1099C92.6104 21.4122 92.7915 20.7257 93.1405 20.1216C93.5118 19.494 94.0413 18.9749 94.6762 18.6161C95.311 18.2573 96.0289 18.0715 96.7581 18.0771H103.258V20.259H97.0078C96.7592 20.2464 96.5107 20.2864 96.2786 20.3762C96.0465 20.4661 95.8359 20.6038 95.6606 20.7804C95.4998 20.9447 95.373 21.1392 95.2876 21.3527C95.2022 21.5661 95.1597 21.7943 95.1627 22.0242C95.1615 22.2497 95.2049 22.4731 95.2903 22.6818C95.3757 22.8904 95.5016 23.0801 95.6606 23.2399C96.0092 23.5708 96.4971 23.7363 97.1244 23.7363H99.8307C100.844 23.7363 101.691 23.9022 102.371 24.2341C103.032 24.512 103.584 24.9966 103.946 25.6152C104.314 26.2219 104.499 26.9674 104.499 27.8517C104.505 28.6008 104.313 29.3384 103.944 29.99C103.574 30.6417 103.04 31.1845 102.394 31.5639C101.712 31.9789 100.926 32.1896 100.129 32.171L93.074 32.1651ZM82.4811 30.3142C83.3379 30.3321 84.1816 30.1023 84.911 29.6524C85.6286 29.1937 86.2029 28.5426 86.5685 27.7734C86.9817 26.9319 87.1903 26.0046 87.1771 25.0672C87.1923 24.1588 86.9934 23.2595 86.5965 22.4422C86.2496 21.693 85.6935 21.06 84.9952 20.6194C84.2621 20.1503 83.4059 19.9101 82.5357 19.9295C81.6595 19.8901 80.7916 20.1136 80.0434 20.5714C79.2953 21.0292 78.7012 21.7003 78.3375 22.4984C77.9732 23.33 77.7851 24.228 77.7851 25.1359C77.7851 26.0438 77.9732 26.9418 78.3375 27.7734C78.6894 28.5274 79.2444 29.1683 79.9403 29.6243C80.6474 30.0852 81.4982 30.3152 82.4929 30.3142H82.4811ZM81.8178 32.4975C80.4558 32.4975 79.2775 32.175 78.2829 31.5299C77.2863 30.8651 76.4929 29.9377 75.9903 28.8503C75.4464 27.6835 75.1727 26.4091 75.1896 25.1219C75.1702 23.8247 75.4749 22.5431 76.076 21.3934C76.6499 20.2815 77.532 19.3584 78.6167 18.7345C79.7217 18.0717 81.0477 17.7404 82.5948 17.7404C84.0868 17.7404 85.367 18.0624 86.4355 18.7064C87.486 19.3315 88.3382 20.241 88.8935 21.3299C89.4925 22.4709 89.7971 23.7433 89.7799 25.0318V32.1577H87.2155V29.2861H87.1608C86.86 29.8537 86.4783 30.3747 86.0278 30.8327C85.5296 31.3354 84.9386 31.7367 84.2877 32.0144C83.5117 32.3476 82.6739 32.5122 81.8296 32.4975H81.8178ZM62.6793 24.1779H70.7182C70.716 23.807 70.6789 23.437 70.6074 23.073C70.5345 22.67 70.4042 22.2795 70.2204 21.9134C70.0398 21.5297 69.7894 21.1831 69.4818 20.8912C69.1628 20.565 68.776 20.3128 68.3488 20.1526C67.8476 19.9581 67.313 19.8642 66.7756 19.8764C66.1815 19.8651 65.5936 19.9979 65.062 20.2634C64.5827 20.5039 64.1595 20.8426 63.8197 21.2575C63.469 21.6639 63.1974 22.1324 63.0191 22.6387C62.8363 23.1339 62.722 23.6518 62.6793 24.1779ZM67.9278 32.1548C66.3807 32.1548 65.0089 31.8697 63.8123 31.2995C62.6654 30.7537 61.6908 29.9028 60.9953 28.84C60.3316 27.7715 60.0002 26.5286 60.0012 25.1115C59.9789 23.8087 60.2724 22.5198 60.8565 21.355C61.3913 20.269 62.2127 19.3496 63.2318 18.6961C64.2451 18.052 65.4239 17.73 66.7682 17.73C68.2217 17.73 69.4276 18.0427 70.3858 18.668C71.3515 19.2834 72.1112 20.1734 72.5676 21.2236C73.06 22.3361 73.3054 23.542 73.287 24.7585C73.287 24.9609 73.2767 25.1736 73.259 25.3937C73.2614 25.5886 73.2426 25.7833 73.2028 25.9742H62.7074C62.7743 26.7798 63.0717 27.549 63.5642 28.19C64.0504 28.785 64.6767 29.25 65.387 29.5431C66.1808 29.8449 67.024 29.9952 67.8731 29.9862H71.5469V32.1681L67.9278 32.1548Z" fill="#AE244D"/>
  </svg>