<svg version="1.1" xmlns="http://www.w3.org/2000/svg" xmlns:xlink="http://www.w3.org/1999/xlink" x="0px" y="0px" viewBox="0 0 400 90.5" xml:space="preserve"><path fill="rgb(174,36,77)" d="M387.37,66.06V9.88h7.08v56.19H387.37z M370.57,66.06V9.88h7.08v56.19H370.57z M333.52,43.82h22.4
      c0-0.97-0.1-2-0.31-3.08c-0.21-1.13-0.56-2.21-1.08-3.23c-0.51-1.08-1.21-2.03-2.08-2.85c-0.82-0.87-1.87-1.56-3.16-2.08
      c-1.23-0.51-2.69-0.77-4.39-0.77c-1.8,0-3.39,0.36-4.77,1.08c-1.33,0.67-2.49,1.59-3.46,2.77c-0.97,1.13-1.72,2.41-2.23,3.85
      C333.94,40.95,333.63,42.38,333.52,43.82z M348.15,66.06c-4.31,0-8.13-0.8-11.47-2.39c-3.34-1.64-5.95-3.93-7.85-6.85
      c-1.85-2.98-2.77-6.44-2.77-10.39c0-3.9,0.8-7.39,2.39-10.47c1.59-3.13,3.8-5.59,6.62-7.39c2.82-1.8,6.11-2.69,9.85-2.69
      c4.05,0,7.41,0.87,10.08,2.62c2.72,1.74,4.75,4.1,6.08,7.08c1.33,2.92,2,6.21,2,9.85c0,0.56-0.03,1.15-0.08,1.77
      c0,0.62-0.05,1.15-0.15,1.62H333.6c0.26,2.41,1.05,4.46,2.39,6.16c1.33,1.64,3.03,2.9,5.08,3.77c2.1,0.82,4.41,1.23,6.93,1.23h10.24
      v6.08H348.15z M295.07,32.89v-6.08h27.32v6.08H295.07z M313.01,66.06c-3.49,0-6.23-1-8.24-3c-1.95-2-2.92-4.72-2.92-8.16V16.96h7.08
      v37.48c0,1.69,0.46,3.05,1.39,4.08c0.97,0.97,2.31,1.46,4,1.46h7.93v6.08H313.01z M261.15,66.06v-6.08h18.78
      c1.23,0,2.28-0.26,3.16-0.77c0.92-0.56,1.62-1.28,2.08-2.16c0.46-0.87,0.69-1.8,0.69-2.77c0-0.92-0.21-1.77-0.62-2.54
      c-0.41-0.82-1.05-1.46-1.92-1.92c-0.82-0.51-1.82-0.77-3-0.77h-7.93c-2.51,0-4.72-0.41-6.62-1.23c-1.85-0.87-3.31-2.13-4.39-3.77
      c-1.03-1.64-1.54-3.64-1.54-6c0-2,0.49-3.85,1.46-5.54c0.97-1.69,2.33-3.05,4.08-4.08c1.74-1.08,3.75-1.62,6-1.62h18.09v6.08h-17.39
      c-1.59,0-2.85,0.49-3.77,1.46c-0.92,0.97-1.39,2.13-1.39,3.46c0,1.28,0.46,2.41,1.39,3.39c0.97,0.92,2.33,1.39,4.08,1.39h7.54
      c2.82,0,5.18,0.46,7.08,1.39c1.95,0.87,3.41,2.16,4.39,3.85c1.03,1.69,1.54,3.77,1.54,6.23c0,2.1-0.51,4.08-1.54,5.93
      c-1.03,1.8-2.46,3.26-4.31,4.39c-1.8,1.13-3.9,1.69-6.31,1.69H261.15z M224.65,43.82h22.4c0-0.97-0.1-2-0.31-3.08
      c-0.21-1.13-0.56-2.21-1.08-3.23c-0.51-1.08-1.21-2.03-2.08-2.85c-0.82-0.87-1.87-1.56-3.16-2.08c-1.23-0.51-2.69-0.77-4.39-0.77
      c-1.8,0-3.39,0.36-4.77,1.08c-1.33,0.67-2.49,1.59-3.46,2.77c-0.97,1.13-1.72,2.41-2.23,3.85
      C225.06,40.95,224.75,42.38,224.65,43.82z M239.27,66.06c-4.31,0-8.13-0.8-11.47-2.39c-3.34-1.64-5.95-3.93-7.85-6.85
      c-1.85-2.98-2.77-6.44-2.77-10.39c0-3.9,0.8-7.39,2.39-10.47c1.59-3.13,3.8-5.59,6.62-7.39c2.82-1.8,6.11-2.69,9.85-2.69
      c4.05,0,7.41,0.87,10.08,2.62c2.72,1.74,4.75,4.1,6.08,7.08c1.33,2.92,2,6.21,2,9.85c0,0.56-0.03,1.15-0.08,1.77
      c0,0.62-0.05,1.15-0.15,1.62h-29.25c0.26,2.41,1.05,4.46,2.39,6.16c1.33,1.64,3.03,2.9,5.08,3.77c2.1,0.82,4.41,1.23,6.93,1.23
      h10.24v6.08H239.27z M191.58,60.91c2.41,0,4.59-0.59,6.54-1.77c2-1.18,3.59-2.85,4.77-5c1.18-2.16,1.77-4.72,1.77-7.7
      c0-2.87-0.59-5.39-1.77-7.54c-1.13-2.16-2.67-3.85-4.62-5.08c-1.95-1.23-4.16-1.85-6.62-1.85c-2.41,0-4.62,0.59-6.62,1.77
      c-1.95,1.18-3.51,2.87-4.7,5.08c-1.13,2.16-1.69,4.72-1.69,7.7c0,2.92,0.56,5.46,1.69,7.62c1.18,2.16,2.75,3.82,4.7,5
      C187.03,60.32,189.22,60.91,191.58,60.91z M191.58,66.99c-3.8,0-7.21-0.82-10.24-2.46c-3.03-1.64-5.44-4-7.23-7.08
      c-1.74-3.13-2.62-6.88-2.62-11.24V9.88h7.08v23.94h0.15c0.87-1.59,2-2.98,3.39-4.16c1.44-1.18,3.05-2.1,4.85-2.77
      c1.85-0.67,3.77-1,5.77-1c3.64,0,6.9,0.82,9.77,2.46c2.87,1.64,5.13,3.98,6.77,7c1.69,2.98,2.54,6.52,2.54,10.62
      c0,3.23-0.51,6.16-1.54,8.77c-0.97,2.57-2.36,4.77-4.16,6.62c-1.8,1.85-3.93,3.26-6.39,4.23C197.27,66.52,194.55,66.99,191.58,66.99
      z M146.8,66.61l-14.62-38.38h7.66l10.55,30.88h0.16l9.54-30.88h7.11l-19,54.09h-7.35L146.8,66.61z M97.74,66.06v-6.08h18.78
      c1.23,0,2.28-0.26,3.16-0.77c0.92-0.56,1.62-1.28,2.08-2.16c0.46-0.87,0.69-1.8,0.69-2.77c0-0.92-0.21-1.77-0.62-2.54
      c-0.41-0.82-1.05-1.46-1.92-1.92c-0.82-0.51-1.82-0.77-3-0.77h-7.93c-2.51,0-4.72-0.41-6.62-1.23c-1.85-0.87-3.31-2.13-4.39-3.77
      c-1.03-1.64-1.54-3.64-1.54-6c0-2,0.49-3.85,1.46-5.54c0.97-1.69,2.33-3.05,4.08-4.08c1.74-1.08,3.75-1.62,6-1.62h18.09v6.08h-17.39
      c-1.59,0-2.85,0.49-3.77,1.46c-0.92,0.97-1.39,2.13-1.39,3.46c0,1.28,0.46,2.41,1.39,3.39c0.97,0.92,2.33,1.39,4.08,1.39h7.54
      c2.82,0,5.18,0.46,7.08,1.39c1.95,0.87,3.41,2.16,4.39,3.85c1.03,1.69,1.54,3.77,1.54,6.23c0,2.1-0.51,4.08-1.54,5.93
      c-1.03,1.8-2.46,3.26-4.31,4.39c-1.8,1.13-3.9,1.69-6.31,1.69H97.74z M68.22,60.91c2.57,0,4.82-0.62,6.77-1.85
      c2-1.28,3.54-3.03,4.62-5.23c1.13-2.26,1.69-4.77,1.69-7.54c0-2.72-0.54-5.16-1.62-7.31c-1.03-2.16-2.51-3.85-4.46-5.08
      c-1.95-1.28-4.23-1.92-6.85-1.92c-2.77,0-5.16,0.64-7.16,1.92c-1.95,1.28-3.46,3.03-4.54,5.23c-1.03,2.16-1.54,4.62-1.54,7.39
      c0,2.67,0.51,5.11,1.54,7.31c1.03,2.16,2.51,3.87,4.46,5.16C63.09,60.26,65.45,60.91,68.22,60.91z M66.38,66.99
      c-3.8,0-7.08-0.9-9.85-2.69c-2.77-1.85-4.9-4.34-6.39-7.47c-1.49-3.13-2.23-6.59-2.23-10.39c0-3.85,0.82-7.31,2.46-10.39
      c1.64-3.13,4-5.59,7.08-7.39c3.08-1.85,6.77-2.77,11.08-2.77c4.16,0,7.72,0.9,10.7,2.69c2.98,1.8,5.26,4.23,6.85,7.31
      c1.64,3.08,2.46,6.52,2.46,10.31v19.86h-7.16v-8h-0.15c-0.77,1.49-1.82,2.92-3.16,4.31c-1.28,1.33-2.9,2.44-4.85,3.31
      C71.28,66.55,68.99,66.99,66.38,66.99z M13.01,43.82h22.4c0-0.97-0.1-2-0.31-3.08c-0.21-1.13-0.56-2.21-1.08-3.23
      c-0.51-1.08-1.21-2.03-2.08-2.85c-0.82-0.87-1.87-1.56-3.16-2.08c-1.23-0.51-2.69-0.77-4.39-0.77c-1.8,0-3.39,0.36-4.77,1.08
      c-1.33,0.67-2.49,1.59-3.46,2.77c-0.97,1.13-1.72,2.41-2.23,3.85C13.42,40.95,13.12,42.38,13.01,43.82z M27.64,66.06
      c-4.31,0-8.13-0.8-11.47-2.39c-3.34-1.64-5.95-3.93-7.85-6.85c-1.85-2.98-2.77-6.44-2.77-10.39c0-3.9,0.8-7.39,2.39-10.47
      c1.59-3.13,3.8-5.59,6.62-7.39c2.82-1.8,6.11-2.69,9.85-2.69c4.05,0,7.41,0.87,10.08,2.62c2.72,1.74,4.75,4.1,6.08,7.08
      c1.33,2.92,2,6.21,2,9.85c0,0.56-0.03,1.15-0.08,1.77c0,0.62-0.05,1.15-0.15,1.62H13.09c0.26,2.41,1.05,4.46,2.39,6.16
      c1.33,1.64,3.03,2.9,5.08,3.77c2.1,0.82,4.41,1.23,6.93,1.23h10.24v6.08H27.64z"></path></svg>